<mxfile host="app.diagrams.net" modified="2023-04-18T10:04:11.142Z" agent="Mozilla/5.0 (Windows NT 10.0; Win64; x64) AppleWebKit/537.36 (KHTML, like Gecko) Chrome/112.0.0.0 Safari/537.36" etag="0C5kZeZFmQerY6F10p6l" version="21.1.8" type="github">
  <diagram name="Page-1" id="NkprQJH01LdGCqszJBk1">
    <mxGraphModel dx="1304" dy="716" grid="1" gridSize="10" guides="1" tooltips="1" connect="1" arrows="1" fold="1" page="1" pageScale="1" pageWidth="827" pageHeight="1169" math="0" shadow="0">
      <root>
        <mxCell id="0" />
        <mxCell id="1" parent="0" />
        <mxCell id="eYq6PcUIMY6iADh9rWsP-1" value="Actor" style="shape=umlActor;verticalLabelPosition=bottom;verticalAlign=top;html=1;outlineConnect=0;" vertex="1" parent="1">
          <mxGeometry x="140" y="190" width="30" height="60" as="geometry" />
        </mxCell>
        <mxCell id="eYq6PcUIMY6iADh9rWsP-4" value="S" style="whiteSpace=wrap;html=1;aspect=fixed;" vertex="1" parent="1">
          <mxGeometry x="220" y="120" width="330" height="330" as="geometry" />
        </mxCell>
        <mxCell id="eYq6PcUIMY6iADh9rWsP-5" value="System" style="text;html=1;strokeColor=none;fillColor=none;align=center;verticalAlign=middle;whiteSpace=wrap;rounded=0;" vertex="1" parent="1">
          <mxGeometry x="310" y="150" width="60" height="30" as="geometry" />
        </mxCell>
      </root>
    </mxGraphModel>
  </diagram>
</mxfile>
